<?xml version="1.0" encoding="utf-8"?>
<!-- Generator: Adobe Illustrator 16.0.0, SVG Export Plug-In . SVG Version: 6.00 Build 0)  -->
<!DOCTYPE svg PUBLIC "-//W3C//DTD SVG 1.1//EN" "http://www.w3.org/Graphics/SVG/1.1/DTD/svg11.dtd">
<svg version="1.1" id="Layer_1" xmlns="http://www.w3.org/2000/svg" xmlns:xlink="http://www.w3.org/1999/xlink" x="0px" y="0px"
	 width="32px" height="32px" viewBox="0 -12 32 32" enable-background="new 0 -12 32 32" xml:space="preserve">
<path fill="#BDCAEF" d="M8-5c0,0.552-0.518,1-1.154,1H6.155C5.517-4,5-4.448,5-5l0,0c0-0.552,0.517-1,1.155-1h0.691
	C7.482-6,8-5.552,8-5L8-5z"/>
<path fill="#BDCAEF" d="M26.75-5c0,0.552-0.518,1-1.154,1H10.904C10.268-4,9.75-4.448,9.75-5l0,0c0-0.552,0.518-1,1.154-1h14.691
	C26.232-6,26.75-5.552,26.75-5L26.75-5z"/>
<path fill="#BDCAEF" d="M8.035,4c0,0.552-0.524,1-1.168,1H6.167C5.523,5,5,4.552,5,4l0,0c0-0.552,0.523-1,1.167-1h0.699
	C7.511,3,8.035,3.448,8.035,4L8.035,4z"/>
<path fill="#BDCAEF" d="M27,4c0,0.552-0.523,1-1.168,1h-14.86c-0.644,0-1.167-0.448-1.167-1l0,0c0-0.552,0.523-1,1.167-1h14.86
	C26.477,3,27,3.448,27,4L27,4z"/>
<path fill="#BDCAEF" d="M8.035,13c0,0.553-0.524,1-1.168,1H6.168C5.523,14,5,13.553,5,13l0,0c0-0.553,0.523-1,1.168-1h0.699
	C7.511,12,8.035,12.447,8.035,13L8.035,13z"/>
<path fill="#BDCAEF" d="M27,13c0,0.553-0.523,1-1.168,1h-14.86c-0.644,0-1.167-0.447-1.167-1l0,0c0-0.553,0.523-1,1.167-1h14.86
	C26.477,12,27,12.447,27,13L27,13z"/>
</svg>
