<?xml version="1.0" encoding="utf-8"?>
<!-- Generator: Adobe Illustrator 16.0.0, SVG Export Plug-In . SVG Version: 6.00 Build 0)  -->
<!DOCTYPE svg PUBLIC "-//W3C//DTD SVG 1.1//EN" "http://www.w3.org/Graphics/SVG/1.1/DTD/svg11.dtd">

<svg version="1.1" id="Layer_1" xmlns="http://www.w3.org/2000/svg" xmlns:xlink="http://www.w3.org/1999/xlink" x="0px" y="0px"
	 width="32px" height="32px" viewBox="0 0 32 32" enable-background="new 0 0 32 32" xml:space="preserve">
<path fill="#0B44F1" d="M7,14c1.105,0,2,0.895,2,2c0,1.105-0.895,2-2,2s-2-0.895-2-2C5,14.895,5.895,14,7,14z"/>
<path fill="#0B44F1" d="M16,14c1.105,0,2,0.895,2,2c0,1.105-0.895,2-2,2c-1.105,0-2-0.895-2-2C14,14.895,14.895,14,16,14z"/>
<path fill="#0B44F1" d="M25,14c1.105,0,2,0.895,2,2c0,1.105-0.895,2-2,2s-2-0.895-2-2C23,14.895,23.895,14,25,14z"/>
</svg>
