<?xml version="1.0" encoding="utf-8"?>
<!-- Generator: Adobe Illustrator 16.0.0, SVG Export Plug-In . SVG Version: 6.00 Build 0)  -->
<!DOCTYPE svg PUBLIC "-//W3C//DTD SVG 1.1//EN" "http://www.w3.org/Graphics/SVG/1.1/DTD/svg11.dtd">
<svg version="1.1" id="Layer_1" xmlns="http://www.w3.org/2000/svg" xmlns:xlink="http://www.w3.org/1999/xlink" x="0px" y="0px"
	 width="32px" height="32px" viewBox="0 0 32 32" enable-background="new 0 0 32 32" xml:space="preserve">
<path fill="#FFFFFF" d="M30.736,30.736c-0.353,0.352-0.922,0.352-1.272,0l-28.2-28.2c-0.352-0.352-0.352-0.921,0-1.272l0,0
	c0.352-0.352,0.921-0.352,1.272,0l28.2,28.2C31.088,29.814,31.088,30.385,30.736,30.736L30.736,30.736z"/>
<path fill="#FFFFFF" d="M1.264,30.736c0.352,0.352,0.921,0.352,1.272,0l28.2-28.2c0.352-0.352,0.352-0.921,0-1.272l0,0
	c-0.353-0.352-0.922-0.352-1.272,0l-28.2,28.2C0.912,29.814,0.912,30.385,1.264,30.736L1.264,30.736z"/>
</svg>
