<?xml version="1.0" encoding="utf-8"?>
<!-- Generator: Adobe Illustrator 16.0.0, SVG Export Plug-In . SVG Version: 6.00 Build 0)  -->
<!DOCTYPE svg PUBLIC "-//W3C//DTD SVG 1.1//EN" "http://www.w3.org/Graphics/SVG/1.1/DTD/svg11.dtd">
<svg version="1.1" id="Layer_1" xmlns="http://www.w3.org/2000/svg" xmlns:xlink="http://www.w3.org/1999/xlink" x="0px" y="0px"
	 width="32px" height="32px" viewBox="0 0 32 32" enable-background="new 0 0 32 32" xml:space="preserve">
<path fill="#0099FF" d="M23.859,23.859c-0.188,0.188-0.491,0.188-0.679,0L8.141,8.819c-0.188-0.188-0.188-0.491,0-0.678l0,0
	c0.188-0.188,0.491-0.188,0.678,0l15.04,15.04C24.047,23.368,24.047,23.672,23.859,23.859L23.859,23.859z"/>
<path fill="#0099FF" d="M8.141,23.859c0.188,0.188,0.491,0.188,0.678,0l15.04-15.04c0.188-0.188,0.188-0.491,0-0.678l0,0
	c-0.188-0.188-0.491-0.188-0.679,0l-15.04,15.04C7.953,23.368,7.953,23.672,8.141,23.859L8.141,23.859z"/>
</svg>
