<?xml version="1.0" encoding="utf-8"?>
<!-- Generator: Adobe Illustrator 16.0.0, SVG Export Plug-In . SVG Version: 6.00 Build 0)  -->
<!DOCTYPE svg PUBLIC "-//W3C//DTD SVG 1.1//EN" "http://www.w3.org/Graphics/SVG/1.1/DTD/svg11.dtd">
<svg version="1.1" id="Layer_1" xmlns="http://www.w3.org/2000/svg" xmlns:xlink="http://www.w3.org/1999/xlink" x="0px" y="0px"
	 width="32px" height="32px" viewBox="0 0 32 32" enable-background="new 0 0 32 32" xml:space="preserve">
<path fill="#0B44F1" d="M23.196,8.929c0.342,0.342,0.347,0.891,0.011,1.227L10.28,23.082c-0.335,0.336-0.884,0.331-1.226-0.011l0,0
	c-0.342-0.342-0.347-0.891-0.011-1.226L21.97,8.918C22.306,8.583,22.854,8.587,23.196,8.929L23.196,8.929z"/>
<path fill="#0B44F1" d="M23.321,23.071c0.342-0.342,0.347-0.891,0.011-1.227L10.405,8.918c-0.336-0.336-0.885-0.331-1.227,0.011l0,0
	c-0.342,0.342-0.347,0.891-0.011,1.226l12.927,12.928C22.431,23.418,22.979,23.413,23.321,23.071L23.321,23.071z"/>
</svg>
