<?xml version="1.0" encoding="utf-8"?>
<!-- Generator: Adobe Illustrator 16.0.0, SVG Export Plug-In . SVG Version: 6.00 Build 0)  -->
<!DOCTYPE svg PUBLIC "-//W3C//DTD SVG 1.1//EN" "http://www.w3.org/Graphics/SVG/1.1/DTD/svg11.dtd">
<svg version="1.1" id="Layer_1" xmlns="http://www.w3.org/2000/svg" xmlns:xlink="http://www.w3.org/1999/xlink" x="0px" y="0px"
	 width="32px" height="32px" viewBox="0 0 32 32" enable-background="new 0 0 32 32" xml:space="preserve">
<path fill="#FFFFFF" d="M23.195,8.929c0.343,0.342,0.348,0.891,0.012,1.227L10.28,23.082c-0.335,0.336-0.884,0.331-1.226-0.012l0,0
	c-0.342-0.342-0.347-0.891-0.011-1.225L21.971,8.918C22.307,8.583,22.854,8.587,23.195,8.929L23.195,8.929z"/>
<path fill="#FFFFFF" d="M23.32,23.07c0.343-0.342,0.348-0.891,0.012-1.227L10.405,8.918C10.069,8.582,9.52,8.587,9.178,8.929l0,0
	C8.836,9.271,8.831,9.82,9.167,10.155l12.927,12.928C22.432,23.418,22.979,23.413,23.32,23.07L23.32,23.07z"/>
</svg>
