<?xml version="1.0" encoding="utf-8"?>
<!-- Generator: Adobe Illustrator 16.0.0, SVG Export Plug-In . SVG Version: 6.00 Build 0)  -->
<!DOCTYPE svg PUBLIC "-//W3C//DTD SVG 1.1//EN" "http://www.w3.org/Graphics/SVG/1.1/DTD/svg11.dtd">
<svg version="1.1" id="Layer_1" xmlns="http://www.w3.org/2000/svg" xmlns:xlink="http://www.w3.org/1999/xlink" x="0px" y="0px"
	 width="100px" height="100px" viewBox="910 490 100 100" enable-background="new 910 490 100 100" xml:space="preserve">
<g id="msg">
</g>
<g id="event">
</g>
<g id="cupon">
</g>
<g id="user">
</g>
<g id="arrow">
	<g>
		<g>
			<path fill="#FFFFFF" stroke="#000000" stroke-width="2" stroke-miterlimit="10" d="M943.573,513.628
				c0.08,0.21-0.026,0.446-0.236,0.525l-9.144,3.479l-1.481,3.225l-0.9-2.32l-2.437,0.927c-0.21,0.08-0.446-0.025-0.526-0.236
				l-2.97-7.811c-0.081-0.21,0.026-0.446,0.236-0.526l13.961-5.31c0.21-0.08,0.446,0.026,0.526,0.236L943.573,513.628z"/>
			<path fill="#FFFFFF" stroke="#000000" stroke-width="2" stroke-miterlimit="10" d="M937.081,509.986
				c0.151,0.248,0.071,0.571-0.176,0.722l-10.779,6.535L925,521.675l-1.681-2.73l-2.873,1.741c-0.248,0.151-0.571,0.072-0.722-0.177
				l-5.582-9.207c-0.15-0.248-0.071-0.571,0.177-0.721l16.458-9.978c0.248-0.151,0.571-0.072,0.721,0.176L937.081,509.986z"/>
			
				<rect x="916.819" y="508.356" transform="matrix(-0.8551 0.5184 -0.5184 -0.8551 1979.3717 464.3228)" stroke="#000000" stroke-width="2" stroke-miterlimit="10" width="15.975" height="0.766"/>
			
				<rect x="918.678" y="511.562" transform="matrix(-0.8551 0.5184 -0.5184 -0.8551 1984.483 469.3314)" stroke="#000000" stroke-width="2" stroke-miterlimit="10" width="15.974" height="0.765"/>
		</g>
		<g>
			<path fill="#FFFFFF" stroke="#000000" stroke-width="2" stroke-miterlimit="10" d="M1004.792,537.911
				c-0.091,0.311-0.39,0.5-0.668,0.418l-18.788-5.423c-0.279-0.08-0.433-0.398-0.343-0.711l4.158-14.404
				c0.09-0.311,0.39-0.499,0.669-0.418l18.786,5.422c0.28,0.081,0.434,0.399,0.344,0.711L1004.792,537.911z"/>
			<g>
				<circle fill="#FFFFFF" stroke="#000000" stroke-width="2" stroke-miterlimit="10" cx="993.128" cy="522.375" r="1.288"/>
				<circle fill="#FFFFFF" stroke="#000000" stroke-width="2" stroke-miterlimit="10" cx="998.154" cy="523.826" r="1.287"/>
				<circle fill="#C1272D" cx="1003.151" cy="525.294" r="1.458"/>
			</g>
			<g>
				<circle fill="#FFFFFF" stroke="#000000" stroke-width="2" stroke-miterlimit="10" cx="991.966" cy="526.398" r="1.288"/>
				<circle fill="#FFFFFF" stroke="#000000" stroke-width="2" stroke-miterlimit="10" cx="996.994" cy="527.85" r="1.288"/>
				<circle fill="#FFFFFF" stroke="#000000" stroke-width="2" stroke-miterlimit="10" cx="1002.021" cy="529.301" r="1.287"/>
			</g>
			<g>
				<circle fill="#FFFFFF" stroke="#000000" stroke-width="2" stroke-miterlimit="10" cx="990.786" cy="530.346" r="1.288"/>
				<circle fill="#FFFFFF" stroke="#000000" stroke-width="2" stroke-miterlimit="10" cx="995.813" cy="531.797" r="1.287"/>
				<circle fill="#FFFFFF" stroke="#000000" stroke-width="2" stroke-miterlimit="10" cx="1000.84" cy="533.248" r="1.287"/>
			</g>
		</g>
		<g>
			<path fill="#FFFFFF" stroke="#000000" stroke-width="2" stroke-miterlimit="10" d="M963.377,569.002
				c-0.096,0.425-0.127,0.649-0.356,0.808l-15.332,10.635c-0.228,0.157-0.556,0.08-0.732-0.174l-8.153-11.757
				c-0.177-0.254-0.135-0.588,0.092-0.746l15.333-10.635c0.227-0.156,0.554-0.007,0.847,0.096l9.242,2.836L963.377,569.002z"/>
			<g>
				<path fill="#C1272D" d="M946.975,572.289l0.287,0.412l-1.567,1.087l-0.286-0.412L946.975,572.289z"/>
				<path fill="#C1272D" d="M946.896,568.482l-0.017,0.013l-0.605,1.146l-0.803-0.755l0.82-1.548l0.989-0.686l3.875,5.586
					l-1.118,0.774L946.896,568.482z"/>
				<path fill="#C1272D" d="M953.668,566.319c1.39,2.003,1.272,3.393,0.371,4.019c-1.221,0.849-2.605-0.267-3.6-1.702
					c-1.115-1.609-1.487-3.245-0.327-4.051C951.4,563.691,952.744,564.986,953.668,566.319z M951.555,567.822
					c0.889,1.317,1.464,1.798,1.841,1.536c0.353-0.245,0.044-0.947-0.844-2.227c-0.829-1.195-1.43-1.823-1.791-1.572
					C950.409,565.805,950.646,566.53,951.555,567.822z"/>
				<path fill="#C1272D" d="M955.911,564.551c0.603,0.868,0.445,1.617-0.087,1.987c-0.514,0.356-1.244,0.251-1.826-0.575
					c-0.573-0.825-0.444-1.601,0.103-1.978C954.677,563.583,955.365,563.764,955.911,564.551z M954.427,565.636
					c0.353,0.535,0.826,0.798,1.175,0.557c0.368-0.256,0.261-0.763-0.118-1.308c-0.347-0.503-0.784-0.82-1.171-0.552
					C953.964,564.576,954.066,565.116,954.427,565.636z M956.986,568.296l-0.533-5.943l0.354-0.248l0.534,5.945L956.986,568.296z
					 M959.778,564.395c0.603,0.87,0.445,1.618-0.082,1.982c-0.513,0.358-1.243,0.253-1.821-0.567
					c-0.577-0.831-0.448-1.606,0.099-1.984C958.55,563.424,959.232,563.609,959.778,564.395z M958.294,565.48
					c0.359,0.531,0.839,0.791,1.182,0.554c0.368-0.256,0.26-0.765-0.118-1.31c-0.348-0.5-0.785-0.818-1.171-0.55
					C957.838,564.417,957.933,564.961,958.294,565.48z"/>
			</g>
		</g>
		<path fill="none" stroke="#000000" stroke-width="2" stroke-miterlimit="10" d="M946.021,551.95v-13.64
			c0,0-0.102-7.879,11.792-7.879c11.533,0,11.369,7.879,11.369,7.879l0.164,13.64"/>
		<path fill="none" stroke="#000000" stroke-width="2" stroke-miterlimit="10" d="M963.571,520.949c0,3.389-2.369,7.301-5.758,7.301
			c-3.39,0-6.516-3.912-6.516-7.301c0-3.39,2.748-6.137,6.137-6.137C960.824,514.812,963.571,517.559,963.571,520.949z"/>
		<g>
			<path fill="none" stroke="#000000" stroke-width="2" stroke-miterlimit="10" d="M947.335,502.611
				c15.782-2.977,31.863,0.584,38.529,13.499"/>
			<path fill="none" stroke="#000000" stroke-width="2" stroke-miterlimit="10" d="M955.309,504.832c0,0-1.818-1.141-3.721-1.539
				c-2.407-0.502-5.026-0.262-5.026-0.262s2.346-1.562,4.287-2.583c2.087-1.099,3.901-1.652,3.901-1.652"/>
		</g>
		<g>
			<path fill="none" stroke="#000000" stroke-width="2" stroke-miterlimit="10" d="M998.218,544.395
				c-5.717,16.378-15.881,22.83-31.765,24.521"/>
			<path fill="none" stroke="#000000" stroke-width="2" stroke-miterlimit="10" d="M992.501,551.255c0,0,1.9-1.876,3.13-3.488
				c1.489-1.956,2.74-4.24,2.74-4.24s0.372,3.584-0.033,5.739c-0.435,2.317-1.069,4.071-1.069,4.071"/>
		</g>
		<g>
			<path fill="none" stroke="#000000" stroke-width="2" stroke-miterlimit="10" d="M934.89,564.781
				c-15.618-9.521-18.342-23.314-16.444-36.604"/>
			<path fill="none" stroke="#000000" stroke-width="2" stroke-miterlimit="10" d="M929.55,557.621c0,0,1.381,2.286,2.663,3.858
				c1.555,1.905,3.485,3.65,3.485,3.65s-3.573-0.472-5.573-1.367c-2.152-0.964-3.71-1.989-3.71-1.989"/>
		</g>
	</g>
</g>
</svg>
