<?xml version="1.0" encoding="utf-8"?>
<!-- Generator: Adobe Illustrator 23.0.3, SVG Export Plug-In . SVG Version: 6.00 Build 0)  -->
<svg version="1.1" id="Слой_1" xmlns="http://www.w3.org/2000/svg" xmlns:xlink="http://www.w3.org/1999/xlink" x="0px" y="0px"
	 viewBox="0 0 385.4 93" style="enable-background:new 0 0 385.4 93;" xml:space="preserve">
<style type="text/css">
	.st0{fill:url(#SVGID_1_);}
	.st1{fill:url(#SVGID_2_);}
	.st2{fill:url(#SVGID_3_);}
	.st3{fill:url(#SVGID_4_);}
	.st4{fill:url(#SVGID_5_);}
	.st5{fill:url(#SVGID_6_);}
	.st6{fill:url(#SVGID_7_);}
	.st7{fill:url(#SVGID_8_);}
	.st8{fill:#40272D;}
	.st9{fill:#F15A24;}
	.st10{fill:url(#SVGID_9_);}
</style>
<g>
	<linearGradient id="SVGID_1_" gradientUnits="userSpaceOnUse" x1="10.0475" y1="27.2662" x2="50.7079" y2="69.6451">
		<stop  offset="1.356845e-02" style="stop-color:#F15A24"/>
		<stop  offset="1" style="stop-color:#D4145A"/>
	</linearGradient>
	<path class="st0" d="M27.9,20.7c6.7,0,13.7,1.9,19,6.6l-5.8,9c-2.8-2.6-7.8-4.6-12-4.6c-10.4,0-14.6,6.6-14.6,13.9
		c0,9.4,6.5,15,14.2,15c3.6,0,7.2-1.4,10-3.6v-3.8h-7V43h17.7v27.9H39.3v-1.4c0-1,0.1-2.1,0.1-2.1h-0.1c-3,2.6-8.1,4.3-13,4.3
		C13.6,71.7,2,62.2,2,46.1C2,31.7,12.8,20.7,27.9,20.7z"/>
	<g>
		<linearGradient id="SVGID_2_" gradientUnits="userSpaceOnUse" x1="323.6891" y1="27.7308" x2="359.701" y2="65.2648">
			<stop  offset="1.356845e-02" style="stop-color:#F15A24"/>
			<stop  offset="1" style="stop-color:#D4145A"/>
		</linearGradient>
		<path class="st1" d="M341.7,21.1c15.3,0,25.8,11,25.8,25.2c0,14.5-10.5,25.8-25.8,25.8s-25.8-11.3-25.8-25.8
			C315.9,32.1,326.3,21.1,341.7,21.1z M341.7,61.1c7.8,0,13.3-6.4,13.3-14.8c0-8.1-5.5-14.2-13.3-14.2s-13.3,6.1-13.3,14.2
			C328.3,54.7,333.9,61.1,341.7,61.1z"/>
	</g>
	<linearGradient id="SVGID_3_" gradientUnits="userSpaceOnUse" x1="109.3369" y1="26.4537" x2="153.2862" y2="72.2606">
		<stop  offset="1.356845e-02" style="stop-color:#F15A24"/>
		<stop  offset="1" style="stop-color:#D4145A"/>
	</linearGradient>
	<path class="st2" d="M114.6,21.5h17.2c5,0,7.5,0.3,9.6,1.2c5.6,2.1,9.1,7.2,9.1,14.4c0,5.2-2.5,11-7.4,13.5v0.1c0,0,0.7,0.9,1.9,3
		l9.6,17.3h-13.5l-8.8-16.6h-5.7V71h-12.1L114.6,21.5L114.6,21.5z M131.9,43.9c3.9,0,6.3-2.1,6.3-6.1c0-2.5-0.6-4.3-2.9-5.2
		c-1.1-0.5-2.6-0.7-4.6-0.7h-4.1v12H131.9z"/>
	<linearGradient id="SVGID_4_" gradientUnits="userSpaceOnUse" x1="160.5533" y1="20.4894" x2="200.1196" y2="61.728">
		<stop  offset="1.356845e-02" style="stop-color:#F15A24"/>
		<stop  offset="1" style="stop-color:#D4145A"/>
	</linearGradient>
	<path class="st3" d="M159.5,21.5h12.1v31.2c0,5.2,3.4,7.9,8.6,7.9c5.2,0,8.6-2.8,8.6-7.9V21.5h12.1v31.2c0,11.1-8.1,19-20.6,19
		c-12.6,0-20.7-7.9-20.7-19V21.5H159.5z"/>
	<linearGradient id="SVGID_5_" gradientUnits="userSpaceOnUse" x1="209.0909" y1="22.9479" x2="253.7092" y2="69.4521">
		<stop  offset="1.356845e-02" style="stop-color:#F15A24"/>
		<stop  offset="1" style="stop-color:#D4145A"/>
	</linearGradient>
	<path class="st4" d="M210.6,21.5h12.2l13.7,23.1c1.9,3.2,4.1,8.4,4.1,8.4h0.1c0,0-0.6-5.3-0.6-8.4V21.5h12.1v49.4H240l-13.7-23
		c-1.9-3.2-4.1-8.4-4.1-8.4h-0.1c0,0,0.6,5.3,0.6,8.4v23h-12.1V21.5z"/>
	<linearGradient id="SVGID_6_" gradientUnits="userSpaceOnUse" x1="268.0946" y1="27.269" x2="308.731" y2="69.623">
		<stop  offset="1.356845e-02" style="stop-color:#F15A24"/>
		<stop  offset="1" style="stop-color:#D4145A"/>
	</linearGradient>
	<path class="st5" d="M285.9,20.7c6.7,0,13.7,1.9,19,6.6l-5.8,9c-2.8-2.6-7.8-4.6-12-4.6c-10.4,0-14.6,6.6-14.6,13.9
		c0,9.4,6.5,15,14.2,15c3.6,0,7.2-1.4,10-3.6v-3.8h-7V43h17.7v27.9h-10.1v-1.4c0-1,0.1-2.1,0.1-2.1h-0.1c-3,2.6-8.1,4.3-13,4.3
		c-12.6,0-24.2-9.5-24.2-25.6C260,31.7,270.9,20.7,285.9,20.7z"/>
	<g>
		<linearGradient id="SVGID_7_" gradientUnits="userSpaceOnUse" x1="68.2152" y1="33.3942" x2="104.8173" y2="71.5433">
			<stop  offset="1.356845e-02" style="stop-color:#F15A24"/>
			<stop  offset="1" style="stop-color:#D4145A"/>
		</linearGradient>
		<circle class="st6" cx="80.9" cy="46.6" r="26.4"/>
		<linearGradient id="SVGID_8_" gradientUnits="userSpaceOnUse" x1="73.8704" y1="40.5308" x2="93.5038" y2="57.654">
			<stop  offset="1.356845e-02" style="stop-color:#FFFF00"/>
			<stop  offset="1" style="stop-color:#F7931E"/>
		</linearGradient>
		<circle class="st7" cx="81.3" cy="47" r="13"/>
		<path class="st8" d="M66.7,68.9c4.1,2.6,9,4.1,14.2,4.1c11.5,0,21.3-7.3,24.9-17.6L93.5,43.2l-9.2,13.8l-6.1-4.6L66.7,68.9z"/>
	</g>
	<path class="st9" d="M77.1,53.7"/>
	<linearGradient id="SVGID_9_" gradientUnits="userSpaceOnUse" x1="-6.8852" y1="68.6942" x2="-6.8852" y2="68.6942">
		<stop  offset="1.356845e-02" style="stop-color:#F15A24"/>
		<stop  offset="1" style="stop-color:#D4145A"/>
	</linearGradient>
	<path class="st10" d="M-6.9,68.7"/>
</g>
</svg>
