<?xml version="1.0" encoding="utf-8"?>
<!-- Generator: Adobe Illustrator 22.1.0, SVG Export Plug-In . SVG Version: 6.00 Build 0)  -->
<svg version="1.1" id="Слой_1" xmlns="http://www.w3.org/2000/svg" xmlns:xlink="http://www.w3.org/1999/xlink" x="0px" y="0px"
	 viewBox="0 0 385.4 93" style="enable-background:new 0 0 385.4 93;" xml:space="preserve">
<style type="text/css">
	.st0{fill:#F4FF00;}
</style>
<g>
	<path class="st0" d="M27.7,35.7h25.9v31c-2.8,2.3-6.1,4-10,5.1s-7.7,1.6-11.5,1.6c-4.4,0-8.6-0.7-12.4-2.1s-7.1-3.6-9.9-6.5
		C7.2,61.8,5,58,3.4,53.5C1.8,48.9,1,43.5,1,37.2C1,30.6,1.9,25,3.8,20.4s4.4-8.3,7.5-11.2s6.5-5,10.4-6.3C25.5,1.6,29.4,1,33.4,1
		s7.5,0.3,10.5,0.9s5.4,1.2,7.2,1.9l-2.8,11.4c-1.7-0.7-3.5-1.2-5.6-1.5c-2.1-0.4-4.7-0.5-7.9-0.5c-2.8,0-5.5,0.4-7.9,1.3
		c-2.4,0.9-4.5,2.3-6.2,4.2c-1.8,2-3.1,4.5-4.1,7.5s-1.4,6.8-1.4,11.1c0,4.2,0.5,7.8,1.4,10.8s2.2,5.5,3.9,7.5
		c1.7,2,3.6,3.4,5.8,4.3c2.2,0.9,4.6,1.4,7.1,1.4c1.7,0,3.4-0.2,5.1-0.6c1.7-0.4,3-1.1,4.2-1.9V45.5l-15-1.6V35.7z"/>
	<path class="st0" d="M61,47.1c0-8.4,2.1-14.9,6.2-19.4s9.9-6.8,17.3-6.8c4,0,7.4,0.6,10.3,1.9s5.3,3,7.3,5.3
		c1.9,2.3,3.4,5.1,4.3,8.3c1,3.2,1.4,6.8,1.4,10.7c0,8.4-2,14.9-6.1,19.4s-9.8,6.8-17.2,6.8c-4,0-7.4-0.6-10.3-1.9s-5.4-3-7.3-5.3
		c-2-2.3-3.4-5.1-4.4-8.3C61.5,54.6,61,51,61,47.1z M74.3,47.1c0,2.2,0.2,4.2,0.6,6.1c0.4,1.9,1,3.5,1.8,4.9s1.8,2.5,3.1,3.2
		c1.3,0.8,2.8,1.1,4.6,1.1c3.4,0,5.9-1.2,7.6-3.7c1.7-2.4,2.5-6.3,2.5-11.6c0-4.6-0.8-8.3-2.3-11.1s-4.1-4.2-7.8-4.2
		c-3.2,0-5.7,1.2-7.5,3.6C75.2,37.8,74.3,41.7,74.3,47.1z"/>
	<path class="st0" d="M144.2,34.4c-2.1-0.7-3.9-1.1-5.6-1.1c-2.3,0-4.3,0.6-5.8,1.8c-1.6,1.2-2.6,2.8-3.1,4.7v32.1h-12.9V22.3h10
		l1.5,6.6h0.4c1.1-2.4,2.6-4.3,4.6-5.7c1.9-1.3,4.2-2,6.8-2c1.7,0,3.7,0.4,5.9,1.1L144.2,34.4z"/>
	<path class="st0" d="M164.1,22.3v28.2c0,4,0.5,7,1.4,8.7c1,1.8,2.8,2.7,5.6,2.7c2.5,0,4.5-0.7,6.1-2.2s2.8-3.2,3.6-5.4v-32h12.9
		v34.6c0,2.7,0.1,5.4,0.4,8c0.3,2.6,0.7,5,1.2,7.1h-9.7l-2.3-7.4H183c-1.5,2.5-3.6,4.6-6.4,6.3c-2.7,1.7-5.9,2.5-9.6,2.5
		c-2.5,0-4.8-0.3-6.8-1s-3.6-1.8-5-3.3c-1.3-1.5-2.3-3.6-3-6.2c-0.7-2.6-1-5.8-1-9.7V22.3H164.1z"/>
	<path class="st0" d="M235.6,71.9V43.7c0-4-0.6-7-1.7-8.7c-1.2-1.8-3.1-2.7-5.9-2.7c-2.5,0-4.5,0.7-6.2,2.1
		c-1.7,1.4-2.9,3.2-3.6,5.3v32.2h-12.9V22.3h10.2l1.5,6.6h0.4c1.5-2.1,3.5-4,6.1-5.6c2.5-1.6,5.8-2.4,9.7-2.4c2.5,0,4.6,0.3,6.6,1
		c1.9,0.7,3.5,1.8,4.9,3.3c1.3,1.5,2.3,3.6,3,6.2s1,5.8,1,9.7V72L235.6,71.9L235.6,71.9z"/>
	<path class="st0" d="M301.3,71.9c0,7.2-2,12.5-5.9,15.9s-9.4,5.1-16.4,5.1c-4.8,0-8.5-0.3-11.3-1c-2.7-0.7-4.8-1.4-6.2-2.1
		l2.7-10.2c1.5,0.6,3.3,1.2,5.3,1.8c2,0.6,4.5,0.9,7.5,0.9c4.5,0,7.6-1,9.2-2.9c1.6-2,2.4-4.7,2.4-8.2V68h-0.4
		c-2.3,3.1-6.4,4.7-12.3,4.7c-6.4,0-11.2-2-14.4-6c-3.1-4-4.7-10.2-4.7-18.7c0-8.9,2.1-15.6,6.4-20.2c4.2-4.6,10.4-6.9,18.5-6.9
		c4.2,0,8,0.3,11.4,0.9c3.3,0.6,6.1,1.3,8.2,2.1L301.3,71.9L301.3,71.9z M279.5,62.4c2.5,0,4.5-0.6,5.8-1.7c1.4-1.1,2.4-2.8,3.1-5.1
		V33.3c-2.1-0.9-4.6-1.3-7.7-1.3c-3.3,0-5.9,1.2-7.8,3.7s-2.8,6.4-2.8,11.9c0,4.8,0.8,8.5,2.4,11C274.2,61.1,276.5,62.4,279.5,62.4z
		"/>
	<path class="st0" d="M310.2,47.1c0-8.4,2.1-14.9,6.2-19.4s9.9-6.8,17.3-6.8c4,0,7.4,0.6,10.3,1.9s5.3,3,7.3,5.3
		c1.9,2.3,3.4,5.1,4.3,8.3c1,3.2,1.4,6.8,1.4,10.7c0,8.4-2,14.9-6.1,19.4s-9.8,6.8-17.2,6.8c-4,0-7.4-0.6-10.3-1.9s-5.4-3-7.3-5.3
		c-2-2.3-3.4-5.1-4.4-8.3C310.7,54.6,310.2,51,310.2,47.1z M323.5,47.1c0,2.2,0.2,4.2,0.6,6.1c0.4,1.9,1,3.5,1.8,4.9
		s1.8,2.5,3.1,3.2c1.3,0.8,2.8,1.1,4.6,1.1c3.4,0,5.9-1.2,7.6-3.7c1.7-2.4,2.5-6.3,2.5-11.6c0-4.6-0.8-8.3-2.3-11.1
		s-4.1-4.2-7.8-4.2c-3.2,0-5.7,1.2-7.5,3.6C324.4,37.8,323.5,41.7,323.5,47.1z"/>
</g>
<path class="st0" d="M334.6,9.3L334.6,9.3c-2.3,0-4.1-1.8-4.1-4.1V3.9c0-2.3,1.8-4.1,4.1-4.1l0,0c2.3,0,4.1,1.8,4.1,4.1v1.3
	C338.7,7.4,336.9,9.3,334.6,9.3z"/>
<path class="st0" d="M365.7,25.5L365.7,25.5c-1.1-2-0.5-4.5,1.5-5.6l4.8-2.8c2-1.1,4.5-0.5,5.6,1.5v0c1.1,2,0.5,4.5-1.5,5.6
	l-4.8,2.8C369.3,28.1,366.8,27.5,365.7,25.5z"/>
<path class="st0" d="M367.1,73.9l-1.8-0.8c-1.5-0.7-2.2-2.5-1.5-4l0,0c0.7-1.5,2.5-2.2,4-1.5l1.8,0.8c1.5,0.7,2.2,2.5,1.5,4v0
	C370.4,73.9,368.6,74.6,367.1,73.9z"/>
</svg>
