<?xml version="1.0" encoding="utf-8"?>
<!-- Generator: Adobe Illustrator 23.0.3, SVG Export Plug-In . SVG Version: 6.00 Build 0)  -->
<svg version="1.1" id="Слой_1" xmlns="http://www.w3.org/2000/svg" xmlns:xlink="http://www.w3.org/1999/xlink" x="0px" y="0px"
	 viewBox="0 0 385.4 93" style="enable-background:new 0 0 385.4 93;" xml:space="preserve">
<style type="text/css">
	.st0{fill:#FFFFFF;}
	.st1{fill:#F15A24;}
</style>
<path class="st0" d="M25.9,20.7c6.7,0,13.7,1.9,19,6.6l-5.8,9c-2.8-2.6-7.8-4.6-12-4.6c-10.4,0-14.6,6.6-14.6,13.9
	c0,9.4,6.5,15,14.2,15c3.6,0,7.2-1.4,10-3.6v-3.8h-7V43h17.7v27.9H37.3v-1.4c0-1,0.1-2.1,0.1-2.1h-0.1c-3,2.6-8.1,4.3-13,4.3
	C11.6,71.7,0,62.2,0,46.1C0,31.7,10.8,20.7,25.9,20.7z"/>
<g>
	<path class="st0" d="M339.7,21.1c15.3,0,25.8,11,25.8,25.2c0,14.5-10.5,25.8-25.8,25.8s-25.8-11.3-25.8-25.8
		C313.9,32.1,324.3,21.1,339.7,21.1z M339.7,61.1c7.8,0,13.3-6.4,13.3-14.8c0-8.1-5.5-14.2-13.3-14.2s-13.3,6.1-13.3,14.2
		C326.3,54.7,331.9,61.1,339.7,61.1z"/>
</g>
<path class="st0" d="M112.6,21.5h17.2c5,0,7.5,0.3,9.6,1.2c5.6,2.1,9.1,7.2,9.1,14.4c0,5.2-2.5,11-7.4,13.5v0.1c0,0,0.7,0.9,1.9,3
	l9.6,17.3h-13.5l-8.8-16.6h-5.7V71h-12.1L112.6,21.5L112.6,21.5z M129.9,43.9c3.9,0,6.3-2.1,6.3-6.1c0-2.5-0.6-4.3-2.9-5.2
	c-1.1-0.5-2.6-0.7-4.6-0.7h-4.1v12H129.9z"/>
<path class="st0" d="M157.5,21.5h12.1v31.2c0,5.2,3.4,7.9,8.6,7.9c5.2,0,8.6-2.8,8.6-7.9V21.5h12.1v31.2c0,11.1-8.1,19-20.6,19
	c-12.6,0-20.7-7.9-20.7-19V21.5H157.5z"/>
<path class="st0" d="M208.6,21.5h12.2l13.7,23.1c1.9,3.2,4.1,8.4,4.1,8.4h0.1c0,0-0.6-5.3-0.6-8.4V21.5h12.1v49.4H238l-13.7-23
	c-1.9-3.2-4.1-8.4-4.1-8.4h-0.1c0,0,0.6,5.3,0.6,8.4v23h-12.1L208.6,21.5L208.6,21.5z"/>
<path class="st0" d="M283.9,20.7c6.7,0,13.7,1.9,19,6.6l-5.8,9c-2.8-2.6-7.8-4.6-12-4.6c-10.4,0-14.6,6.6-14.6,13.9
	c0,9.4,6.5,15,14.2,15c3.6,0,7.2-1.4,10-3.6v-3.8h-7V43h17.7v27.9h-10.1v-1.4c0-1,0.1-2.1,0.1-2.1h-0.1c-3,2.6-8.1,4.3-13,4.3
	c-12.6,0-24.2-9.5-24.2-25.6C258,31.7,268.9,20.7,283.9,20.7z"/>
<path class="st1" d="M75.1,53.7"/>
<g>
	<path class="st0" d="M79.4,21.1c15.3,0,25.8,11,25.8,25.2c0,14.5-10.5,25.8-25.8,25.8S53.6,60.8,53.6,46.3
		C53.6,32.1,64,21.1,79.4,21.1z M79.4,61.1c7.8,0,13.3-6.4,13.3-14.8c0-8.1-5.5-14.2-13.3-14.2s-13.3,6.1-13.3,14.2
		C66,54.7,71.6,61.1,79.4,61.1z"/>
</g>
</svg>
