<?xml version="1.0" encoding="utf-8"?>
<!-- Generator: Adobe Illustrator 23.0.3, SVG Export Plug-In . SVG Version: 6.00 Build 0)  -->
<svg version="1.1" id="Слой_1" xmlns="http://www.w3.org/2000/svg" xmlns:xlink="http://www.w3.org/1999/xlink" x="0px" y="0px"
	 viewBox="0 0 50 50" style="enable-background:new 0 0 50 50;" xml:space="preserve">
<style type="text/css">
	.st0{fill:#AAAAAA;}
	.st1{fill:#FFFFFF;}
</style>
<circle class="st0" cx="22.5" cy="24.5" r="22.5"/>
<path class="st1" d="M22.5,28.9L22.5,28.9c-1.9,0-3.4-1.5-3.4-3.4V13.7c0-1.9,1.5-3.4,3.4-3.4h0c1.9,0,3.4,1.5,3.4,3.4v11.7
	C25.9,27.4,24.4,28.9,22.5,28.9z"/>
<path class="st1" d="M31.7,31.6L31.7,31.6c-0.9,1.6-2.8,2.2-4.2,1.3l-6.6-4.1c-1.4-0.9-1.8-2.9-0.9-4.5l0,0c0.9-1.6,2.8-2.2,4.2-1.3
	l6.6,4.1C32.2,28,32.6,30,31.7,31.6z"/>
</svg>
