<?xml version="1.0" encoding="utf-8"?>
<!-- Generator: Adobe Illustrator 23.0.3, SVG Export Plug-In . SVG Version: 6.00 Build 0)  -->
<svg version="1.1" id="Слой_1" xmlns="http://www.w3.org/2000/svg" xmlns:xlink="http://www.w3.org/1999/xlink" x="0px" y="0px"
	 viewBox="0 0 50 50" style="enable-background:new 0 0 50 50;" xml:space="preserve">
<style type="text/css">
	.st0{fill:#333333;}
	.st1{fill:#ED1E79;}
</style>
<g>
	<path class="st0" d="M25,0C11.2,0,0,11.2,0,25s11.2,25,25,25s25-11.2,25-25S38.8,0,25,0z M25.1,47.3c-12.4,0-22.4-10-22.4-22.4
		s10-22.4,22.4-22.4s22.4,10,22.4,22.4S37.5,47.3,25.1,47.3z"/>
</g>
<g>
	<path class="st0" d="M25.1,8.5C15.8,8.5,8.3,16,8.3,25.2S15.8,42,25.1,42s16.7-7.5,16.7-16.8S34.3,8.5,25.1,8.5z M25,39.5
		c-7.9,0-14.2-6.4-14.2-14.2S17.2,11,25,11s14.2,6.4,14.2,14.2S32.9,39.5,25,39.5z"/>
</g>
<circle class="st1" cx="25" cy="25.3" r="8"/>
</svg>
