<?xml version="1.0" encoding="utf-8"?>
<!-- Generator: Adobe Illustrator 23.0.4, SVG Export Plug-In . SVG Version: 6.00 Build 0)  -->
<svg version="1.1" id="Слой_1" xmlns="http://www.w3.org/2000/svg" xmlns:xlink="http://www.w3.org/1999/xlink" x="0px" y="0px"
	 viewBox="0 0 3000 1960" style="enable-background:new 0 0 3000 1960;" xml:space="preserve">
<style type="text/css">
	.st0{fill:url(#SVGID_1_);}
	.st1{opacity:0.5;fill:#FFFFFF;enable-background:new    ;}
	.st2{fill:#FFFFFF;}
	.st3{opacity:0.1;fill-rule:evenodd;clip-rule:evenodd;fill:url(#SVGID_2_);enable-background:new    ;}
	.st4{opacity:0.1;fill-rule:evenodd;clip-rule:evenodd;fill:url(#SVGID_3_);enable-background:new    ;}
	.st5{opacity:0.1;fill-rule:evenodd;clip-rule:evenodd;fill:url(#SVGID_4_);enable-background:new    ;}
	.st6{opacity:0.1;fill-rule:evenodd;clip-rule:evenodd;fill:url(#SVGID_5_);enable-background:new    ;}
	.st7{fill:#1945B2;}
	.st8{fill:#123189;}
	.st9{fill:#041C66;}
	.st10{fill:#000B35;}
</style>
<linearGradient id="SVGID_1_" gradientUnits="userSpaceOnUse" x1="1500" y1="42" x2="1500" y2="2002" gradientTransform="matrix(1 0 0 -1 0 2002)">
	<stop  offset="0" style="stop-color:#00F4FF"/>
	<stop  offset="0.49" style="stop-color:#0066D4"/>
	<stop  offset="1" style="stop-color:#002059"/>
</linearGradient>
<rect class="st0" width="3000" height="1960"/>
<circle class="st1" cx="2551.6" cy="314.1" r="3.2"/>
<circle class="st1" cx="382.9" cy="34.3" r="3.2"/>
<circle class="st1" cx="498.1" cy="920.1" r="3.2"/>
<circle class="st1" cx="744.2" cy="853.1" r="3.2"/>
<circle class="st1" cx="911.2" cy="706.1" r="3.2"/>
<circle class="st1" cx="99.2" cy="74.1" r="3.2"/>
<circle class="st2" cx="498.4" cy="486.4" r="3.8"/>
<ellipse transform="matrix(0.9238 -0.3828 0.3828 0.9238 171.0185 1103.8969)" class="st1" cx="2859.1" cy="122.3" rx="3.8" ry="3.8"/>
<ellipse transform="matrix(0.9238 -0.3828 0.3828 0.9238 27.5667 1078.1233)" class="st1" cx="2722.6" cy="469.8" rx="3.8" ry="3.8"/>
<ellipse transform="matrix(0.9997 -2.321081e-02 2.321081e-02 0.9997 -14.6775 9.6159)" class="st1" cx="406.9" cy="637.1" rx="3.2" ry="3.2"/>
<ellipse transform="matrix(0.9997 -2.321080e-02 2.321080e-02 0.9997 -10.2862 15.9255)" class="st1" cx="680.9" cy="451.1" rx="3.2" ry="3.2"/>
<ellipse transform="matrix(0.9997 -2.321081e-02 2.321081e-02 0.9997 -1.5092 18.1217)" class="st1" cx="779.9" cy="74.1" rx="3.2" ry="3.2"/>
<ellipse transform="matrix(0.9997 -2.321079e-02 2.321079e-02 0.9997 -3.9733 34.1975)" class="st1" cx="1471.2" cy="188.3" rx="3.2" ry="3.2"/>
<ellipse transform="matrix(0.9997 -2.321080e-02 2.321080e-02 0.9997 -2.1181 23.0415)" class="st1" cx="991.5" cy="102.8" rx="3.2" ry="3.2"/>
<ellipse transform="matrix(0.9238 -0.3828 0.3828 0.9238 -269.8927 467.4119)" class="st1" cx="1039.4" cy="911.8" rx="4.7" ry="4.7"/>
<ellipse transform="matrix(0.9238 -0.3828 0.3828 0.9238 -64.0336 1138.4065)" class="st1" cx="2828.3" cy="730.1" rx="4.7" ry="4.7"/>
<circle class="st1" cx="1761.4" cy="883" r="3.2"/>
<circle class="st1" cx="1595.8" cy="785.3" r="3.2"/>
<circle class="st1" cx="1601.8" cy="562.3" r="3.2"/>
<ellipse transform="matrix(0.9238 -0.3828 0.3828 0.9238 41.0185 802.9268)" class="st1" cx="2037.9" cy="298.4" rx="3.8" ry="3.8"/>
<ellipse transform="matrix(0.9238 -0.3828 0.3828 0.9238 -199.7543 899.0035)" class="st1" cx="2158.9" cy="951.4" rx="3.8" ry="3.8"/>
<ellipse transform="matrix(0.9238 -0.3828 0.3828 0.9238 -166.9186 1015.7347)" class="st1" cx="2468.6" cy="927.3" rx="3.8" ry="3.8"/>
<circle class="st2" cx="210.1" cy="621.3" r="3.2"/>
<ellipse transform="matrix(0.9147 -0.4042 0.4042 0.9147 141.2642 781.91)" class="st1" cx="1922.6" cy="56.4" rx="3.8" ry="3.8"/>
<ellipse transform="matrix(0.9147 -0.4042 0.4042 0.9147 66.8413 921.3279)" class="st1" cx="2215.7" cy="302.3" rx="3.8" ry="3.8"/>
<linearGradient id="SVGID_2_" gradientUnits="userSpaceOnUse" x1="2548.7239" y1="1356.548" x2="2548.7239" y2="1160.5283" gradientTransform="matrix(1 0 0 -1 0 2002)">
	<stop  offset="0" style="stop-color:#FFFFFF"/>
	<stop  offset="0.22" style="stop-color:#FFFFFF;stop-opacity:0.76"/>
	<stop  offset="0.6" style="stop-color:#FFFFFF;stop-opacity:0.36"/>
	<stop  offset="0.87" style="stop-color:#FFFFFF;stop-opacity:0.1"/>
	<stop  offset="1" style="stop-color:#FFFFFF;stop-opacity:0"/>
</linearGradient>
<path class="st3" d="M2667.4,716.2c-1.8,0-3.6,0.1-5.4,0.3c-4-40.2-39.9-69.6-80.2-65.6c-9.2,0.9-18.2,3.6-26.4,7.8
	c-28.9-21.9-70.1-16.1-92,12.8c-3.7,4.8-6.6,10.2-8.8,15.8c-13,6.1-23.3,16.7-29,29.9c-0.9-0.1-1.8-0.1-2.7-0.1
	c-26.8,0-48.5,21.7-48.5,48.5c0,26.8,21.7,48.5,48.5,48.5c8.1,0,16.1-2,23.2-5.9c7.3,23.4,32.3,36.5,55.7,29.1
	c8.5-2.7,16.1-7.9,21.6-14.9c14.6,17.6,40.8,19.9,58.3,5.3c2.1-1.8,4.1-3.8,5.8-6c13.1,20.1,40,25.7,60.1,12.5
	c3.4-2.2,6.5-5,9.2-8.1c30.1,5.8,59.3-13.9,65.1-44s-13.9-59.3-44-65.1C2674.5,716.5,2671,716.2,2667.4,716.2L2667.4,716.2z"/>
<linearGradient id="SVGID_3_" gradientUnits="userSpaceOnUse" x1="466.7337" y1="1545.49" x2="466.7337" y2="1413.67" gradientTransform="matrix(1 0 0 -1 0 2002)">
	<stop  offset="0" style="stop-color:#FFFFFF"/>
	<stop  offset="0.22" style="stop-color:#FFFFFF;stop-opacity:0.76"/>
	<stop  offset="0.6" style="stop-color:#FFFFFF;stop-opacity:0.36"/>
	<stop  offset="0.87" style="stop-color:#FFFFFF;stop-opacity:0.1"/>
	<stop  offset="1" style="stop-color:#FFFFFF;stop-opacity:0"/>
</linearGradient>
<path class="st4" d="M562.9,539.4c-0.7,0-1.4,0-2.1,0.1c-4.4-10.1-12.2-18.2-22.2-22.9c-10-25.9-39.1-38.7-65-28.6
	c-4.3,1.7-8.4,3.9-12.1,6.7c-27.5-14.2-61.3-3.5-75.5,23.9c-3.3,6.3-5.3,13.2-6,20.2c-1.4-0.1-2.7-0.2-4.1-0.2
	c-23.5,0-42.5,19-42.5,42.5c0,23.5,19,42.5,42.5,42.5c2.7,0,5.4-0.3,8-0.8c11.9,13.9,32.9,15.5,46.8,3.6c2.4-2,4.5-4.4,6.2-7
	c10.9,13.7,30.8,15.9,44.5,5c1.7-1.3,3.2-2.8,4.6-4.5c11.6,14.7,33,17.3,47.8,5.6c5.4-4.2,9.3-10,11.4-16.5
	c18,9.8,40.5,3.2,50.3-14.8c9.8-18,3.2-40.5-14.8-50.3C575.3,540.9,569.1,539.4,562.9,539.4L562.9,539.4z"/>
<linearGradient id="SVGID_4_" gradientUnits="userSpaceOnUse" x1="1370.8809" y1="1228" x2="1370.8809" y2="1030.9719" gradientTransform="matrix(1 0 0 -1 0 2002)">
	<stop  offset="0" style="stop-color:#FFFFFF"/>
	<stop  offset="0.22" style="stop-color:#FFFFFF;stop-opacity:0.76"/>
	<stop  offset="0.6" style="stop-color:#FFFFFF;stop-opacity:0.36"/>
	<stop  offset="0.87" style="stop-color:#FFFFFF;stop-opacity:0.1"/>
	<stop  offset="1" style="stop-color:#FFFFFF;stop-opacity:0"/>
</linearGradient>
<path class="st5" d="M1472.9,829.3c-2.6-26.6-26.3-46-53-43.4c-3.5,0.4-7,1.1-10.4,2.2c-28.6-22.5-70-17.6-92.6,11
	c-3.5,4.5-6.5,9.5-8.8,14.7c-35.2-7.5-69.8,14.9-77.3,50c-7.5,35.2,14.9,69.8,50,77.3c4.4,1,9,1.4,13.5,1.4c2,0,4-0.1,5.9-0.3
	c17.8,28.5,55.4,37.2,83.9,19.4c4.7-2.9,9-6.5,12.8-10.6c21.3,8.8,45.7-1.4,54.5-22.7c0.3-0.6,0.5-1.3,0.8-2
	c26.8,5.7,53.2-11.5,58.9-38.3C1516.9,861.4,1499.7,835,1472.9,829.3L1472.9,829.3L1472.9,829.3z"/>
<linearGradient id="SVGID_5_" gradientUnits="userSpaceOnUse" x1="1839.4672" y1="981.9943" x2="1839.4672" y2="824.0542" gradientTransform="matrix(1 0 0 -1 0 2002)">
	<stop  offset="0" style="stop-color:#FFFFFF"/>
	<stop  offset="0.22" style="stop-color:#FFFFFF;stop-opacity:0.76"/>
	<stop  offset="0.6" style="stop-color:#FFFFFF;stop-opacity:0.36"/>
	<stop  offset="0.87" style="stop-color:#FFFFFF;stop-opacity:0.1"/>
	<stop  offset="1" style="stop-color:#FFFFFF;stop-opacity:0"/>
</linearGradient>
<path class="st6" d="M1963.4,1112.6c7.5-15.7,0.9-34.5-14.8-42c-5.8-2.8-12.3-3.7-18.6-2.7c-0.7-23.5-20.3-41.9-43.8-41.2
	c-15.8,0.5-30,9.7-37,23.9c-9.9-5.7-22.4-4.2-30.6,3.6c-10.2-27.3-40.6-41.1-67.8-31c-26.4,9.9-40.4,38.7-31.7,65.6
	c-8.3,6.2-10.1,17.9-3.9,26.3c2.4,3.3,5.8,5.7,9.7,6.8c-6.7,18.2,2.7,38.4,21,45.1c12.1,4.4,25.6,1.9,35.2-6.6
	c19.1,21.5,52.1,23.5,73.6,4.3c1.2-1.1,2.4-2.3,3.6-3.5c20.3,18.4,51.7,16.9,70.1-3.5c4.3-4.8,7.7-10.4,9.9-16.4
	c9.2,5.4,21.1,2.4,26.6-6.9C1968.9,1127.6,1968.3,1118.9,1963.4,1112.6L1963.4,1112.6z"/>
<path class="st7" d="M1123.8,1247.6c-8.2-3.2-14.7-15.1-22.4-20.7c-10.7-7.8-22.7-10.7-33.7-17.6c-26.8-17.1-45.2-0.2-71.5,14.3
	c-23.8,13.1-47.5,16.2-71.5,25.6s-48.8,32.9-72,49.7c-24.9,18.1-49.8,40.8-74,63.5c-10.1,9.5-14.6,21.4-23.3,33.8
	c-7.4,10.6-14.1,9.5-23.6,12.1c-10.3,2.8-24.5,6.4-34.1,15.3c-10.4,9.6-16.9,28.4-26.5,41.3c-12.1,16.3-24.6,32.1-36.6,48.8
	c-5.8,8.1-13.2,18-18.2,28.1c-6.7,13.5-5.4,19.3-9.5,34.9c-14.2,53.3-49,91.1-70.8,131.3s-44.6,67.6-68.9,101H1621
	c-20.3-77.1-41.2-150.4-71.5-210.9c-12.6-25.3-28.3-36.2-42.8-55.4c-12.7-16.8-23.8-38.8-35.9-57.7c-21.9-34.2-41.4-39.9-65.2-62.6
	c-20.4-19.5-39.5-41.6-60.6-59c-11.2-9.3-23.6-26.4-35.3-31.4c-10.6-4.6-22.5-1.5-33.4-5.4c-24.2-8.7-49.1-15.5-72.9-28.9
	C1176.4,1282.4,1150.4,1264.1,1123.8,1247.6z"/>
<path class="st8" d="M1815.1,991.6c19.1-10,29.4-30.6,49.4-39.9c17.7-8.3,35-18.3,51.9-30c21.4-14.5,39.8-20.8,62.5-7.2
	c22.3,13.5,44.4,26.7,66.7,39.3c24.9,14.1,44.9,27.8,71.6,33.6c25.7,5.6,42.4,10.8,66.7,28.1c45.4,32.5,91.4,59.5,134.1,100.7
	c22.8,22,48.2,38.4,71.5,59.4c22.5,20.3,35.9,37.5,51.9,68.4c11.7,22.5,17.3,18.9,36.9,22.9c20.4,4.2,48.9,15.7,66.9,31.4
	c17.1,14.9,20.5,44.2,36,62.1c21.5,24.8,40.4,54.6,61.4,80.5c14.4,17.8,41.8,53.1,49.8,78.7c4.8,15.2,1.7,33.9,5.3,49.5
	c4.5,19.5,14.2,27.2,22.8,42.3c20.9,36.7,36.5,73.2,60.4,105.6c17.1,23.2,30.9,55.4,46.4,80.9c19,31.3,28.3,66.5,51.4,92.5
	c19.5,21.6,38.3,44.8,56.3,69.4l-1968,0c20.2-77.6,40.5-156,65.4-230.2c15.7-46.6,36.8-91.1,56.6-133.5c27.3-58.5,73-89.9,104-144.4
	c23.6-41.5,50.3-93.8,81.8-121.2c28.9-25.1,56-31.6,81.3-66.3c24-32.9,55.5-51.8,83.7-74.4c17.1-13.7,36.7-43.9,54.7-52.5
	c15.5-7.4,34.9-0.6,51.3-6.3c43.3-15,91.7-26.3,132.5-52.6c24.7-15.9,48.4-29.2,74.4-38.6C1777.2,1031.1,1792.4,1005.9,1815.1,991.6
	z"/>
<path class="st9" d="M1184,1960.1c18.3-50.3,46.8-93.3,88.3-131.8c6.5-6,13.4-11.6,23.2-12.6c8.1-0.9,6.4,5.4,14.4,2.6
	c11.2-4,10.3-21.1,22.4-27c23.5-11.7,57.8-7.8,83.3-6.4c29.3-31.9,62-47.9,106.2-60.6c24.1-6.9,53-18.5,72.5-32.8
	c11-8.1,19.1-18.6,31-26c11.5-7.1,24.3-9.4,36.7-14.5c13.6-5.5,24.6-12,39.1-16.4c10.8-3.2,28.2,29.7,37.9,24.4
	c9.2-5.1,12.4-43.4,22.1-48.1c6.1-3,9.3-3.5,13.9-8.3c2.8-2.9,2.7-10.3,5.2-12.2c7.8-6,23.6,0.6,32.1-3.9c9-4.9,12.1-23.4,22.4-26.1
	c3-0.8,11,3.7,16.6,3.4c11.1-0.6,25.9-9.2,37.9-11.3c20-3.4,37.9-12,56.6-15.7c15-3,30.8,4,45.5,2.5c19.8-2,37-14.2,58-15.7
	c25.3-1.8,52.8-0.4,78.5,0c12.3,0.2,24.8-0.2,37,0.2c11.5,0.3,30.2,5.8,40.9,1.8c13.8-5.1,10.3-19,20.5-24.8c13.1-7.5,5,4.4,18,5.2
	c10.6,0.6,38.1-27.8,45.9-33.9c32.6-25.3,68.9-42.2,113.2-43.5c45.5-1.3,90.1,20.8,132.7,5.5c12.1-4.4,29.1-43.1,40.9-46.8
	c16-4.9,25.1-10.8,43.4-10.2c5.7,0.2,9.2-0.9,14.6,0.7c5.1,1.5,8.5,9.7,15,9.2c0.4,0,24.3-17.7,24-17.2c0,0-1.7-0.4-1.8-0.5
	c5.9,3.4,31.7,0.4,38.4,0.6c16.7,0.5,34.7-0.6,51.2,1.6c21.1,2.8,41.7,67.9,61.4,74.7c36.8,12.6,75-53.6,111.8-66.9
	c12.5-4.5,27.6-10.2,38.6-16.9c10.8-6.6,16.7-15.4,26.7-23.2v621L1184,1960.1z"/>
<path class="st10" d="M2,1148c0,0,189.2,4.6,222.9,9.2s140.8,13.8,164.2,23s57.2,24.6,66,30.7s-7.3,9.2-7.3,9.2s35.2,3.1,39.6,15.3
	s5.9,35.3,7.3,46s10.3,15.3,20.5,23c10.3,7.7,39.5,23.8,49.8,34.5s50,2.3,50,10s16.1,27.6,22,30.7s-6.5,29.3,14,32.3s69.7,45,77,45
	s74.7-11.3,80.5-9.8s32.3,6.1,42.5,13.8s29.3,27.6,49.9,38.4s36.7,23,42.5,24.6s4.5,19,23.6,19s36.7,54,47,54s62.2,34.9,71,41
	s30.2-59.7,39-52s58.5-11.4,70.2-3.7s32.3,30.7,51.3,43s44,35.3,57.2,38.4s35.2,35.3,58.7,35.3s57.2,12.3,73.3,16.9
	s67.4,47.6,83.6,50.7s39.6,29.2,60.1,36.8s67.4,41.4,79.2,52.2s61.6,46,76.2,55.3s79.2,49.2,79.2,49.2H2V1148z"/>
</svg>
